<svg width="24" height="24" viewBox="0 0 24 24" fill="none" xmlns="http://www.w3.org/2000/svg">
<path d="M9 19C4 20.5 4 16.5 2 16M22 16V19C22 19.5304 21.7893 20.0391 21.4142 20.4142C21.0391 20.7893 20.5304 21 20 21H16C15.4696 21 14.9609 20.7893 14.5858 20.4142C14.2107 20.0391 14 19.5304 14 19V16.13C14.0375 15.6532 13.9731 15.1738 13.811 14.7238C13.6489 14.2738 13.3929 13.8634 13.06 13.52C16.2 13.17 19.5 11.98 19.5 6.48C19.4997 5.12383 18.9627 3.8168 18 2.84C18.4559 1.61019 18.4236 0.249707 17.91 -0.96C17.91 -0.96 16.73 -1.31 14 0.66C11.708 0.0557225 9.29196 0.0557225 7 0.66C4.27 -1.31 3.09 -0.96 3.09 -0.96C2.57638 0.249707 2.54414 1.61019 3 2.84C2.03013 3.8282 1.49252 5.14637 1.5 6.51C1.5 11.97 4.8 13.16 7.94 13.51C7.611 13.8499 7.35726 14.2561 7.19531 14.7019C7.03335 15.1477 6.96681 15.6237 7 16.1V19" stroke="currentColor" stroke-width="2" stroke-linecap="round" stroke-linejoin="round"/>
</svg>