<?xml version="1.0" encoding="UTF-8"?>
<svg width="456" height="456" viewBox="0 0 456 456" fill="none" xmlns="http://www.w3.org/2000/svg">
    <rect width="456" height="456" rx="50" fill="#512BD4"/>
    <path d="M228 100C280.467 100 322 141.533 322 194V262C322 314.467 280.467 356 228 356C175.533 356 134 314.467 134 262V194C134 141.533 175.533 100 228 100Z" fill="white"/>
    <path d="M228 140C258.928 140 284 165.072 284 196V260C284 290.928 258.928 316 228 316C197.072 316 172 290.928 172 260V196C172 165.072 197.072 140 228 140Z" fill="#512BD4"/>
</svg>